<svg width="48" height="48" viewBox="0 0 48 48" fill="none" xmlns="http://www.w3.org/2000/svg">
<path d="M24 48C37.3805 48 48 37.1681 48 24C48 10.6195 37.1681 0 24 0C10.6195 0 0 10.8319 0 24C0 37.1681 10.8319 48 24 48Z" fill="#2C374B"/>
<path fill-rule="evenodd" clip-rule="evenodd" d="M37.1677 15.2926C36.9553 15.0802 26.5483 8.92094 25.2739 8.49617C24.8491 8.28378 23.7872 8.07139 23.15 8.28378C22.5129 8.49616 11.4686 14.8678 11.0438 15.2926C10.8314 15.505 10.6191 15.9298 10.4067 16.1422C10.1943 16.567 10.1943 16.7794 10.1943 24.213V31.859L11.681 32.7086C12.5306 33.1333 13.1677 33.5581 13.1677 33.5581C13.3801 33.5581 23.3624 17.6289 23.3624 17.4165C23.3624 17.2041 21.0261 17.2041 20.389 17.4165C19.5394 17.6289 18.9022 18.0537 18.4775 18.4785C18.2651 18.6909 16.9907 20.8148 15.2916 23.151C13.8049 25.4873 12.5306 27.6112 12.5306 27.6112C12.5306 27.6112 12.5306 25.4873 12.5306 22.5139V17.2041L12.7429 16.9917C13.1677 16.567 23.9996 10.4077 24.4244 10.4077C24.6368 10.4077 24.8491 10.4077 27.3978 11.8944C28.2474 12.3192 30.5837 13.5935 32.4952 14.8678C34.4067 15.9298 36.1058 16.9917 36.3182 17.2041L36.5306 17.4165V28.4608L31.2208 20.1776C31.0084 19.7528 30.796 19.328 30.5837 19.1156C30.5837 19.1156 30.3713 19.5404 29.0969 21.6643C28.8845 21.8767 28.6722 22.3015 28.6722 22.5139L28.4598 22.9386L28.6722 23.151L28.8845 23.3634C28.8845 23.3634 28.8845 23.5758 29.0969 23.5758L29.5217 24.213C29.5217 24.213 29.5217 24.4254 29.7341 24.4254C29.9465 24.6378 30.1589 25.0625 30.1589 25.2749C30.1589 25.2749 30.1589 25.2749 30.1589 25.4873L34.6191 32.7086L34.1943 32.9209C33.9819 33.1333 33.7695 33.1333 33.5571 33.1333L28.035 24.6378L27.8226 24.4254L27.3978 25.2749L25.2739 28.6732L29.5217 35.4696C28.8845 35.8944 25.2739 38.4431 25.0615 38.4431C24.8491 38.4431 19.9642 35.2572 20.1766 35.0448C20.1766 35.0448 21.6633 32.4962 23.3624 29.5227C24.8491 26.974 26.7606 23.7882 28.035 21.6643C29.5217 19.1156 30.1589 17.8413 30.1589 17.8413C30.1589 17.8413 29.0969 17.8413 27.8226 17.8413H25.6987L20.8137 25.9121C19.1146 28.8855 17.4155 31.6466 16.566 33.1333C15.0792 33.3457 14.6545 33.7705 14.6545 33.7705L14.4421 34.1953L18.2651 36.3192C20.389 37.5935 22.3005 38.6555 22.7252 38.8678C23.3624 39.2926 24.4244 39.2926 24.8491 39.2926C25.2739 39.0802 36.3182 32.7086 36.9553 32.2838C37.1677 32.0714 37.3801 31.859 37.5925 31.4342L37.8049 30.797V23.7882V16.7794L37.5925 16.3546C37.5925 15.9298 37.1677 15.505 37.1677 15.2926Z" fill="white"/>
<path d="M36.106 28.2484L29.7343 18.4785L27.398 22.3015L33.5573 32.2838L36.3184 31.0095L36.106 28.2484Z" fill="#24A2EE"/>
<path d="M33.1323 33.558L26.7606 23.7881L23.9996 28.0359L29.0969 36.1067L32.2828 34.8323L33.1323 33.558Z" fill="#24A2EE"/>
<path fill-rule="evenodd" clip-rule="evenodd" d="M12.3185 17.2042L23.9999 10.4077L35.6813 17.2042V30.7971L23.9999 37.5935L15.2919 32.7086L14.23 34.6201L23.7875 40.1422C23.9999 40.3546 24.2123 40.3546 24.4247 40.1422L37.8052 32.4962C38.0176 32.2838 38.23 32.0714 38.23 31.859V16.567C38.23 16.3546 38.0176 16.1422 37.8052 15.9298L24.4247 8.2838C24.2123 8.07141 23.9999 8.07141 23.7875 8.2838L10.407 15.7174C10.1946 15.9298 9.98218 16.1422 9.98218 16.3546V31.6466C9.98218 31.859 10.1946 32.0714 10.407 32.2838L13.168 33.7705L14.4424 31.859L12.5308 30.7971V17.2042H12.3185Z" fill="#98BCDC"/>
<path d="M29.0972 17.2036H24.6371L14.23 34.1948L17.8406 36.3187L29.0972 17.2036Z" fill="white"/>
<path d="M17.8406 18.903C18.9025 17.2039 21.876 17.2039 23.1503 17.4163L12.9556 33.7703C12.5309 33.5579 11.6813 33.1331 11.0441 32.7083C10.1946 32.2835 9.98218 32.2835 9.98218 31.6464V30.7968C12.3185 27.3986 16.7786 20.6021 17.8406 18.903Z" fill="white"/>
</svg>