<svg width="601" height="179" viewBox="0 0 601 179" fill="none" xmlns="http://www.w3.org/2000/svg">
<path d="M458.2 157.3L474.3 152.2V18.7L458.2 23.7999V157.3ZM272.2 76.2C282.3 76.2 291.7 80.7 297.7 88.2L304.3 73C295.7 64.7 284.2 60.7999 272.2 60.7999C244.4 60.7999 225.3 82.6999 225.5 106.9C225.7 133.1 246.3 154.5 272.2 154.5C285.3 154.5 295.3 150.6 302.8 145.1V126.5C294.9 134.4 283.5 139.1 273.6 139.1C258.6 139.1 241.7 126.9 241.7 106.9C241.7 88.3999 256.3 76.2 272.2 76.2ZM379.5 60.8999C351.8 60.8999 335.6 82.8 335.6 107C335.6 133.2 356.4 154.6 382.3 154.6C395.4 154.6 405.4 150.7 412.9 145.2V126.6C405 134.5 393.6 139.2 383.6 139.2C370.3 139.2 355.7 130.9 352.7 113.5H423.4V107.3C423.3 81.4999 406.3 60.8999 379.5 60.8999ZM553.7 60.8999C527.8 60.8999 506.8 81.8999 506.8 107.8C506.8 133.7 527.8 154.7 553.7 154.7C579.6 154.7 600.6 133.7 600.6 107.8C600.6 81.8999 579.5 60.8999 553.7 60.8999ZM379.7 76.2C392.3 76.2 405.6 84.0999 406.7 99.2999H352.7C353.8 84.0999 367.1 76.2 379.7 76.2ZM553.7 139.2C536.3 139.2 522.2 125.1 522.2 107.7C522.2 90.3 536.3 76.2 553.7 76.2C571.1 76.2 585.2 90.3 585.2 107.7C585.2 125.2 571.1 139.2 553.7 139.2Z" fill="#2E3338"/>
<path d="M108.3 121.8C136.8 121.8 159.9 98.7 159.9 70.2C159.9 41.7 136.8 18.6 108.3 18.6C79.8 18.6 56.7 41.7 56.7 70.2C56.8 98.7 79.9 121.8 108.3 121.8ZM108.3 140.6C69.5 140.6 38 109.1 38 70.3C38 31.5 69.5 0 108.3 0C147.1 0 178.6 31.5 178.6 70.3C178.7 109.1 147.2 140.6 108.3 140.6Z" fill="#35D07F"/>
<path d="M70.8 159.3C99.3 159.3 122.4 136.2 122.4 107.7C122.4 79.2 99.3 56.1 70.8 56.1C42.3 56.1 19.2 79.2 19.2 107.7C19.2 136.2 42.4 159.3 70.8 159.3ZM70.8 178.1C32 178.1 0.5 146.6 0.5 107.8C0.5 69 32 37.5 70.8 37.5C109.6 37.5 141.1 69 141.1 107.8C141.1 146.6 109.7 178.1 70.8 178.1Z" fill="#FBCC5C"/>
</svg>