<svg width="359" height="180" viewBox="0 0 359 180" fill="none" xmlns="http://www.w3.org/2000/svg">
<g clip-path="url(#clip0_296_982)">
<path d="M271.6 0C251.6 0 229.7 10.9 206.6 32.4C195.7 42.5 186.1 53.5 179.1 62.2C179.1 62.2 190.3 75.1 202.6 89C209.3 80.6 218.8 69.2 229.9 58.9C250.4 39.7 263.8 35.8 271.5 35.8C300.3 35.8 323.7 60 323.7 89.9C323.7 119.5 300.3 143.7 271.5 144C270.1 144 268.5 143.8 266.5 143.4C274.9 147.3 284 150.1 292.5 150.1C345.3 150.1 355.7 113.6 356.3 111C357.8 104.3 358.7 97.3 358.7 90.1C358.6 40.4 319.6 0 271.6 0Z" fill="url(#paint0_linear_296_982)"/>
<path d="M87.1 179.8C107.1 179.8 129 168.9 152.1 147.4C163 137.3 172.6 126.3 179.6 117.6C179.6 117.6 168.4 104.7 156.1 90.7999C149.4 99.1999 139.9 110.6 128.8 120.9C108.3 139.9 94.8 144 87.2 144C58.4 144 35 119.8 35 89.8999C35 60.2999 58.4 36.0999 87.2 35.7999C88.6 35.7999 90.2 35.9999 92.2 36.3999C83.8 32.4999 74.7 29.6999 66.2 29.6999C13.4 29.5999 3 66.0999 2.4 68.7999C0.9 75.4999 0 82.4999 0 89.6999C0 139.4 39 179.8 87.1 179.8Z" fill="url(#paint1_linear_296_982)"/>
<path fill-rule="evenodd" clip-rule="evenodd" d="M127.3 59.7C121.5 54.1 93.3 31.2 66.3 30.4C18.1 29.2 4.00001 64.2 2.70001 68.7C12 29.5 46.4 0.2 87.2 0C120.5 0 154.2 32.7 179.1 62.2L179.2 62.1C179.2 62.1 190.4 75 202.7 88.9C202.7 88.9 216.7 105.4 231.5 119.9C237.3 125.5 265.4 148.1 292.4 148.9C341.9 150.3 355.6 113.3 356.3 110.5C347.2 150 312.7 179.4 271.7 179.6C238.4 179.6 204.7 146.9 179.7 117.4C179.7 117.5 179.6 117.5 179.6 117.6C179.6 117.6 168.4 104.7 156.1 90.8C156.2 90.8 142.2 74.2 127.3 59.7Z" fill="#29ABE2"/>
</g>
<defs>
<linearGradient id="paint0_linear_296_982" x1="224.785" y1="14.2464" x2="348.066" y2="138.542" gradientUnits="userSpaceOnUse">
<stop offset="0.21" stop-color="#F15A24"/>
<stop offset="0.6841" stop-color="#FBB03B"/>
</linearGradient>
<linearGradient id="paint1_linear_296_982" x1="133.946" y1="165.574" x2="10.6653" y2="41.2784" gradientUnits="userSpaceOnUse">
<stop offset="0.21" stop-color="#ED1E79"/>
<stop offset="0.8929" stop-color="#522785"/>
</linearGradient>
<clipPath id="clip0_296_982">
<rect width="358.8" height="179.8" fill="white"/>
</clipPath>
</defs>
</svg>