<svg width="221" height="67" viewBox="0 0 221 67" fill="none" xmlns="http://www.w3.org/2000/svg">
<path d="M35.3424 46.5245L49.9252 31.3756L19.7222 0H48.1147L64.12 16.6266V46.512L35.3424 46.5245Z" fill="url(#paint0_linear_285_3107)"/>
<path d="M28.7805 20.4755L14.1978 35.6244L44.4008 67H16.0052L0 50.3703V20.4849L28.7805 20.4755Z" fill="url(#paint1_linear_285_3107)"/>
<path d="M77.6685 26.427C77.6685 26.2645 77.7166 26.1239 77.8128 26.0083C77.909 25.8896 78.0504 25.8334 78.2429 25.8334H82.5103C82.6306 25.8334 82.7569 25.8646 82.8892 25.9271C83.0186 25.9896 83.1328 26.0989 83.2291 26.252C84.3328 28.1046 85.4305 29.9291 86.5161 31.7286C87.6018 33.5281 88.7025 35.3526 89.8182 37.2052V26.3489C89.8543 26.1864 89.9235 26.0583 90.0257 25.9708C90.128 25.8834 90.2513 25.8365 90.3896 25.8365H94.1067C94.2902 25.8365 94.4406 25.8896 94.5639 25.9927C94.6842 26.0958 94.7473 26.2426 94.7473 26.4332V45.4341C94.7473 45.6153 94.6962 45.7497 94.5909 45.834C94.4857 45.9215 94.3443 45.9621 94.1609 45.9621H89.9987C89.8844 45.9621 89.7851 45.9215 89.6979 45.8403C89.6107 45.7591 89.5205 45.6497 89.4243 45.5154C88.2664 43.5284 87.1236 41.5633 85.9929 39.6201C84.8621 37.6769 83.7133 35.7119 82.5494 33.7249V45.3685C82.5494 45.5685 82.5073 45.7153 82.4201 45.8153C82.3329 45.9153 82.1765 45.9652 81.9509 45.9652H78.2459C78.0444 45.9652 77.9 45.909 77.8098 45.7965C77.7196 45.6841 77.6715 45.5466 77.6715 45.3841V26.427H77.6685Z" fill="white"/>
<path d="M112.35 43.8971C111.583 44.6281 110.723 45.1998 109.766 45.6122C108.81 46.0246 107.796 46.2277 106.726 46.2277C105.535 46.2277 104.407 46.0027 103.345 45.5497C102.284 45.0967 101.355 44.4719 100.555 43.6721C99.7547 42.8724 99.1201 41.932 98.651 40.8479C98.1818 39.7639 97.9473 38.5829 97.9473 37.3114C97.9473 36.5179 98.0405 35.7462 98.2269 34.9996C98.4134 34.2529 98.6781 33.5562 99.0239 32.9064C99.3667 32.2566 99.7848 31.6568 100.278 31.11C100.768 30.5633 101.319 30.0947 101.929 29.7073C102.537 29.3199 103.198 29.0169 103.911 28.7982C104.624 28.5826 105.375 28.4733 106.169 28.4733C106.891 28.4733 107.592 28.5732 108.269 28.7732C108.948 28.9731 109.586 29.2512 110.181 29.6136C110.777 29.976 111.324 30.4102 111.817 30.9163C112.313 31.4224 112.741 31.9754 113.095 32.5752C113.453 33.1751 113.727 33.8186 113.922 34.4997C114.118 35.1808 114.217 35.8837 114.217 36.6085C114.217 37.0771 114.211 37.4614 114.199 37.7613C114.187 38.0581 114.118 38.2955 113.998 38.4736C113.877 38.6517 113.673 38.7704 113.39 38.8391C113.107 38.9079 112.692 38.9422 112.145 38.9422H102.75C102.837 39.5202 103.012 40.0044 103.279 40.3918C103.544 40.7792 103.851 41.0885 104.2 41.3197C104.548 41.5509 104.918 41.7164 105.309 41.8133C105.7 41.9101 106.07 41.9632 106.419 41.9632C106.732 41.9632 107.054 41.9289 107.384 41.8601C107.715 41.7914 108.034 41.7039 108.344 41.5884C108.654 41.4759 108.936 41.3447 109.192 41.1947C109.447 41.0447 109.655 40.8885 109.811 40.7261C109.95 40.6074 110.07 40.5199 110.169 40.4605C110.268 40.4012 110.377 40.3731 110.488 40.3731C110.602 40.3731 110.717 40.4137 110.834 40.4949C110.951 40.5761 111.083 40.6949 111.231 40.8479L112.614 42.4756C112.71 42.5943 112.771 42.7005 112.798 42.7943C112.825 42.888 112.837 42.9848 112.837 43.0848C112.837 43.266 112.789 43.4222 112.692 43.5534C112.593 43.6815 112.479 43.7971 112.35 43.8971ZM106.073 32.6065C105.733 32.6065 105.406 32.6752 105.087 32.8158C104.768 32.9564 104.47 33.1438 104.194 33.3781C103.914 33.6125 103.664 33.8811 103.442 34.1779C103.219 34.4778 103.039 34.7778 102.9 35.087H109.568C109.384 34.734 109.186 34.4091 108.975 34.1123C108.762 33.8155 108.518 33.5531 108.244 33.325C107.971 33.097 107.658 32.922 107.306 32.7971C106.954 32.669 106.542 32.6065 106.073 32.6065Z" fill="white"/>
<path d="M114.503 45.4436C114.475 45.3155 114.5 45.1936 114.569 45.0718C114.638 44.9499 114.698 44.8469 114.752 44.7656L119.946 37.1615L115.026 29.8979C114.939 29.7792 114.863 29.6542 114.803 29.5199C114.743 29.3856 114.719 29.2606 114.731 29.1481C114.743 29.0356 114.8 28.9388 114.9 28.8638C114.999 28.7857 115.167 28.7482 115.402 28.7482H119.498C119.645 28.7482 119.774 28.8138 119.883 28.9451C119.991 29.0763 120.114 29.245 120.256 29.4543L122.749 33.6437C122.914 33.4001 123.107 33.0908 123.323 32.7159C123.54 32.341 123.765 31.9536 123.994 31.5506C124.225 31.1476 124.445 30.757 124.658 30.379C124.872 30.001 125.055 29.6792 125.212 29.4168C125.359 29.1825 125.498 29.0138 125.624 28.9076C125.75 28.8045 125.9 28.7514 126.075 28.7514H130.21C130.315 28.7514 130.412 28.7732 130.505 28.8201C130.595 28.867 130.667 28.9294 130.721 29.0107C130.772 29.0919 130.796 29.1856 130.787 29.295C130.778 29.4043 130.721 29.5199 130.619 29.648L125.519 37.1303L130.595 44.5032C130.7 44.6563 130.787 44.8187 130.863 44.9906C130.938 45.1624 130.968 45.3217 130.962 45.4654C130.953 45.6091 130.89 45.731 130.772 45.8247C130.655 45.9184 130.457 45.9684 130.18 45.9684H125.952C125.561 45.9684 125.269 45.7341 125.076 45.2624L122.755 40.9261L120.406 45.3186C120.31 45.5185 120.189 45.6747 120.042 45.7935C119.895 45.9122 119.75 45.9684 119.612 45.9684H115.071C114.948 45.9684 114.845 45.9403 114.758 45.8872C114.671 45.8341 114.596 45.7341 114.536 45.5904L114.503 45.4436Z" fill="white"/>
<path d="M148.66 45.7278C148.546 45.8278 148.429 45.8903 148.302 45.9184C148.176 45.9465 148.056 45.959 147.945 45.959H145.975C145.818 45.959 145.683 45.9309 145.572 45.8715C145.457 45.8122 145.364 45.7341 145.283 45.6341C145.205 45.5341 145.139 45.4217 145.088 45.2967C145.036 45.1717 144.991 45.0405 144.958 44.9062L144.685 43.5816C144.555 43.8596 144.336 44.1564 144.032 44.4657C143.728 44.7781 143.352 45.0624 142.904 45.3248C142.456 45.5872 141.942 45.8028 141.358 45.9746C140.775 46.1465 140.14 46.2308 139.455 46.2308C138.462 46.2308 137.584 46.0309 136.82 45.6341C136.056 45.2373 135.41 44.6937 134.884 44.0064C134.357 43.3191 133.96 42.5194 133.69 41.6009C133.419 40.6855 133.287 39.7045 133.287 38.6673V29.7885C133.287 29.4449 133.359 29.1856 133.503 29.0075C133.648 28.8326 133.876 28.742 134.189 28.742H137.202C137.575 28.742 137.834 28.8076 137.972 28.9388C138.11 29.07 138.18 29.3262 138.18 29.7042V38.5361C138.18 38.9266 138.252 39.2953 138.396 39.642C138.54 39.9919 138.733 40.2981 138.977 40.5637C139.22 40.8292 139.506 41.0416 139.831 41.1947C140.155 41.3478 140.501 41.4259 140.868 41.4259C141.181 41.4259 141.521 41.3728 141.885 41.2635C142.249 41.1541 142.588 40.9854 142.901 40.7542C143.214 40.523 143.476 40.2263 143.683 39.8639C143.891 39.5015 143.996 39.0672 143.996 38.5611V29.7417C143.996 29.5886 144.023 29.4355 144.08 29.2793C144.137 29.1262 144.221 29.0075 144.336 28.9263C144.45 28.8544 144.555 28.8044 144.654 28.7763C144.754 28.7482 144.871 28.7357 145 28.7357H147.948C148.32 28.7357 148.591 28.8294 148.757 29.02C148.922 29.2106 149.006 29.4636 149.006 29.7792V44.9468C149.006 45.1186 148.97 45.278 148.895 45.4217C148.82 45.5654 148.717 45.6778 148.588 45.7591L148.66 45.7278Z" fill="white"/>
<path d="M154.609 40.6043C154.844 40.848 155.099 41.0542 155.373 41.2198C155.646 41.3885 155.911 41.5228 156.161 41.6259C156.413 41.729 156.636 41.804 156.825 41.8508C157.018 41.8977 157.147 41.9196 157.216 41.9196C157.382 41.9196 157.592 41.9133 157.848 41.9008C158.103 41.8883 158.35 41.8477 158.585 41.779C158.819 41.7103 159.021 41.6009 159.192 41.4478C159.361 41.2947 159.448 41.0761 159.448 40.798C159.448 40.545 159.4 40.345 159.303 40.1951C159.207 40.0451 159.069 39.9201 158.885 39.817C158.702 39.7139 158.479 39.6202 158.215 39.539C157.95 39.4578 157.652 39.364 157.322 39.2547C156.278 38.9673 155.418 38.6174 154.738 38.2112C154.059 37.8051 153.523 37.3521 153.126 36.8491C152.729 36.3461 152.456 35.8088 152.299 35.2308C152.143 34.6529 152.065 34.0437 152.065 33.4001C152.065 32.6503 152.209 31.9692 152.495 31.3538C152.78 30.7383 153.189 30.2135 153.722 29.7761C154.251 29.3387 154.889 28.9982 155.625 28.7608C156.365 28.5202 157.186 28.4015 158.091 28.4015C158.639 28.4015 159.153 28.4483 159.631 28.5452C160.109 28.6389 160.567 28.7889 161 28.9919C161.436 29.195 161.86 29.4574 162.272 29.7792C162.684 30.101 163.096 30.4822 163.505 30.9258C163.652 31.107 163.727 31.2757 163.733 31.435C163.739 31.5943 163.64 31.763 163.439 31.9442C163.099 32.2348 162.774 32.5191 162.467 32.7971C162.157 33.0783 161.839 33.3876 161.508 33.7312C161.403 33.8218 161.3 33.8781 161.195 33.9C161.09 33.9218 160.991 33.9218 160.894 33.8937C160.798 33.8656 160.708 33.8218 160.621 33.7594C160.533 33.6969 160.455 33.6188 160.386 33.5282C160.082 33.1752 159.733 32.9377 159.343 32.8159C158.952 32.694 158.585 32.6315 158.248 32.6315C157.821 32.6315 157.481 32.7097 157.231 32.8627C156.982 33.0158 156.861 33.2501 156.88 33.5688C156.898 33.8031 156.982 33.9874 157.135 34.1186C157.288 34.2498 157.475 34.3561 157.697 34.4373C157.92 34.5185 158.155 34.5841 158.401 34.6341C158.648 34.6841 158.876 34.7403 159.087 34.8028C159.869 35.0652 160.588 35.3495 161.24 35.6557C161.893 35.9619 162.458 36.3399 162.936 36.7866C163.415 37.2334 163.787 37.7707 164.052 38.3924C164.317 39.0173 164.449 39.7764 164.449 40.6699C164.449 41.5634 164.278 42.3632 163.935 43.0693C163.592 43.7753 163.12 44.3658 162.518 44.8438C161.917 45.3218 161.207 45.6873 160.386 45.9403C159.565 46.1934 158.678 46.3184 157.731 46.3184C157.192 46.3184 156.642 46.2684 156.086 46.1684C155.529 46.0684 154.991 45.9091 154.468 45.6873C153.944 45.4655 153.451 45.1812 152.979 44.8344C152.51 44.4876 152.092 44.0658 151.725 43.566C151.629 43.4379 151.556 43.3067 151.508 43.1661C151.46 43.0255 151.439 42.8881 151.442 42.7537C151.445 42.6194 151.472 42.4944 151.52 42.382C151.568 42.2695 151.644 42.1726 151.749 42.0914L153.433 40.3419C153.641 40.1607 153.827 40.0982 153.986 40.1513C154.149 40.1982 154.356 40.3513 154.609 40.6043Z" fill="white"/>
<path d="M167.525 26.452C167.525 26.2614 167.573 26.1115 167.669 25.999C167.766 25.8866 167.907 25.8303 168.099 25.8303H176.436C177.037 25.8303 177.603 25.9178 178.132 26.0865C178.661 26.2583 179.148 26.4958 179.594 26.7988C180.036 27.1018 180.436 27.4642 180.793 27.8829C181.151 28.3015 181.452 28.7576 181.699 29.245C181.948 29.7324 182.135 30.2447 182.267 30.7821C182.399 31.3194 182.463 31.863 182.463 32.416C182.463 33.2283 182.321 34.0249 182.039 34.8028C181.756 35.5807 181.353 36.2712 180.833 36.8772C180.309 37.4833 179.684 37.9738 178.953 38.3487C178.222 38.7236 177.413 38.9173 176.526 38.9235H172.571V45.3749C172.571 45.7622 172.37 45.9591 171.97 45.9591H168.096C167.922 45.9591 167.784 45.9122 167.678 45.8154C167.573 45.7216 167.522 45.5748 167.522 45.3749V26.452H167.525ZM177.35 32.391C177.35 32.1192 177.305 31.8474 177.212 31.5787C177.122 31.3069 176.986 31.0664 176.815 30.8539C176.64 30.6415 176.43 30.4665 176.183 30.3322C175.937 30.1979 175.654 30.1291 175.341 30.1291H172.574V34.656H175.341C175.654 34.656 175.937 34.5904 176.189 34.4592C176.442 34.3279 176.652 34.1592 176.821 33.9499C176.989 33.7406 177.122 33.5032 177.212 33.2314C177.302 32.9596 177.35 32.6784 177.35 32.391Z" fill="white"/>
<path d="M201.343 44.953C201.343 45.1061 201.316 45.2529 201.265 45.3935C201.214 45.5341 201.127 45.6434 201.004 45.7247C200.907 45.8246 200.796 45.8871 200.664 45.9153C200.531 45.9434 200.42 45.9559 200.324 45.9559H197.753C197.569 45.9559 197.422 45.9309 197.311 45.8809C197.196 45.8309 197.106 45.7622 197.037 45.6716C196.968 45.581 196.908 45.4716 196.86 45.3404C196.811 45.2092 196.76 45.0655 196.709 44.9124L196.541 44.3032C196.306 44.5469 196.038 44.7874 195.738 45.0217C195.437 45.2561 195.106 45.4654 194.745 45.6528C194.384 45.8372 193.996 45.9871 193.584 46.0996C193.172 46.212 192.742 46.2683 192.3 46.2683C191.509 46.2683 190.749 46.1652 190.024 45.9559C189.299 45.7466 188.619 45.4529 187.988 45.0686C187.356 44.6843 186.785 44.2251 186.271 43.6877C185.756 43.1504 185.317 42.5506 184.947 41.8914C184.577 41.2322 184.292 40.5199 184.093 39.7576C183.892 38.9953 183.792 38.1955 183.792 37.3645C183.792 36.1086 184.015 34.9402 184.457 33.8624C184.899 32.7814 185.504 31.8442 186.271 31.0444C187.034 30.2446 187.937 29.6167 188.971 29.1606C190.006 28.7044 191.115 28.4764 192.297 28.4764C192.836 28.4764 193.338 28.5389 193.804 28.667C194.27 28.795 194.694 28.9669 195.082 29.1824C195.47 29.398 195.819 29.6604 196.132 29.9635C196.444 30.2665 196.718 30.5945 196.953 30.9476L197.332 29.7135C197.419 29.4886 197.491 29.3043 197.548 29.1637C197.605 29.0231 197.665 28.92 197.732 28.8513C197.798 28.7825 197.876 28.7388 197.972 28.7169C198.068 28.6951 198.204 28.6826 198.375 28.6826H200.318C200.414 28.6826 200.525 28.6951 200.658 28.7232C200.79 28.7513 200.901 28.8138 200.998 28.9138C201.118 29.0137 201.205 29.1262 201.259 29.2512C201.31 29.3793 201.337 29.523 201.337 29.6854V44.953H201.343ZM188.493 37.3645C188.493 37.9612 188.583 38.5204 188.761 39.039C188.938 39.5577 189.194 40.0075 189.525 40.3887C189.855 40.7667 190.252 41.0697 190.718 41.2884C191.185 41.5102 191.699 41.6196 192.264 41.6196C192.848 41.6196 193.389 41.5102 193.888 41.2884C194.387 41.0666 194.824 40.7667 195.193 40.3887C195.563 40.0107 195.852 39.5608 196.063 39.039C196.27 38.5204 196.375 37.9612 196.375 37.3645C196.375 36.7866 196.27 36.2336 196.063 35.7119C195.855 35.187 195.563 34.7278 195.193 34.331C194.824 33.9342 194.39 33.6187 193.888 33.3906C193.389 33.1594 192.848 33.0438 192.264 33.0438C191.699 33.0438 191.185 33.1594 190.718 33.3906C190.252 33.6218 189.855 33.9342 189.525 34.331C189.194 34.7278 188.938 35.1901 188.761 35.7119C188.58 36.2336 188.493 36.7866 188.493 37.3645Z" fill="white"/>
<path d="M203.469 30.0447C203.331 29.6823 203.328 29.373 203.463 29.1168C203.599 28.8575 203.896 28.7294 204.357 28.7294H207.581C207.797 28.7294 207.977 28.7982 208.116 28.9388C208.254 29.0794 208.359 29.2512 208.429 29.4605L212.122 40.3699L215.736 29.4605C215.833 29.1731 215.953 28.9763 216.1 28.8763C216.248 28.7763 216.452 28.7263 216.714 28.7263H220.067C220.311 28.7263 220.503 28.7607 220.642 28.8294C220.78 28.8982 220.879 28.9887 220.936 29.1012C220.993 29.2137 221.011 29.3418 220.993 29.4792C220.975 29.6198 220.942 29.7573 220.888 29.8916C220.557 30.7414 220.196 31.6693 219.805 32.6783C219.415 33.6874 219.009 34.734 218.584 35.8243C218.163 36.9147 217.733 38.0206 217.3 39.1453C216.864 40.27 216.44 41.3759 216.028 42.46C215.616 43.5441 215.216 44.5844 214.834 45.5841C214.452 46.5838 214.1 47.4992 213.785 48.3365C213.466 49.1706 213.192 49.9048 212.958 50.539C212.723 51.17 212.546 51.6605 212.422 52.0042L212.461 51.9355C212.401 52.1791 212.293 52.376 212.137 52.5259C211.98 52.6759 211.788 52.7509 211.562 52.7509H208.549C208.158 52.7509 207.89 52.6727 207.746 52.5134C207.602 52.3541 207.529 52.1229 207.529 51.8167C207.529 51.698 207.544 51.6074 207.575 51.5449C207.605 51.4825 207.629 51.4418 207.647 51.4231L209.695 45.8934L203.469 30.0447Z" fill="white"/>
<defs>
<linearGradient id="paint0_linear_285_3107" x1="19.5291" y1="0.199756" x2="65.8135" y2="44.7544" gradientUnits="userSpaceOnUse">
<stop stop-color="#3EC1C8"/>
<stop offset="1" stop-color="#0995B0"/>
</linearGradient>
<linearGradient id="paint1_linear_285_3107" x1="2.19989" y1="22.7597" x2="44.3376" y2="63.3227" gradientUnits="userSpaceOnUse">
<stop stop-color="#0995B0"/>
<stop offset="1" stop-color="#3EC1C8"/>
</linearGradient>
</defs>
</svg>