<svg width="28" height="28" viewBox="0 0 28 28" fill="none" xmlns="http://www.w3.org/2000/svg">
<circle cx="14" cy="14" r="13.25" fill="#0A0E0E" stroke="#0795B0" stroke-width="1.5"/>
<path d="M19.6286 18.5938C18.7957 17.1539 17.5121 16.1214 16.0143 15.6319C16.7552 15.1908 17.3308 14.5187 17.6528 13.7188C17.9748 12.9189 18.0253 12.0354 17.7966 11.204C17.5678 10.3727 17.0725 9.63935 16.3867 9.11672C15.7008 8.59408 14.8624 8.31104 14.0001 8.31104C13.1378 8.31104 12.2994 8.59408 11.6136 9.11672C10.9277 9.63935 10.4324 10.3727 10.2037 11.204C9.97495 12.0354 10.0254 12.9189 10.3474 13.7188C10.6694 14.5187 11.2451 15.1908 11.986 15.6319C10.4881 16.1208 9.20457 17.1533 8.37168 18.5938C8.34114 18.6436 8.32088 18.699 8.3121 18.7568C8.30332 18.8145 8.3062 18.8734 8.32056 18.9301C8.33493 18.9867 8.36049 19.0399 8.39574 19.0865C8.43099 19.1331 8.47521 19.1721 8.5258 19.2013C8.57639 19.2306 8.63232 19.2494 8.69029 19.2566C8.74826 19.2639 8.8071 19.2594 8.86333 19.2436C8.91956 19.2277 8.97205 19.2008 9.0177 19.1643C9.06334 19.1279 9.10122 19.0826 9.1291 19.0313C10.1594 17.2506 11.9805 16.1875 14.0001 16.1875C16.0197 16.1875 17.8408 17.2506 18.8711 19.0313C18.899 19.0826 18.9369 19.1279 18.9825 19.1643C19.0282 19.2008 19.0807 19.2277 19.1369 19.2436C19.1931 19.2594 19.252 19.2639 19.3099 19.2566C19.3679 19.2494 19.4238 19.2306 19.4744 19.2013C19.525 19.1721 19.5692 19.1331 19.6045 19.0865C19.6397 19.0399 19.6653 18.9867 19.6797 18.9301C19.694 18.8734 19.6969 18.8145 19.6881 18.7568C19.6794 18.699 19.6591 18.6436 19.6286 18.5938ZM10.9376 12.25C10.9376 11.6443 11.1172 11.0522 11.4537 10.5486C11.7903 10.045 12.2686 9.65244 12.8281 9.42064C13.3877 9.18885 14.0035 9.1282 14.5976 9.24637C15.1916 9.36454 15.7373 9.65621 16.1656 10.0845C16.5939 10.5128 16.8856 11.0585 17.0038 11.6526C17.1219 12.2466 17.0613 12.8624 16.8295 13.422C16.5977 13.9816 16.2052 14.4599 15.7016 14.7964C15.1979 15.1329 14.6058 15.3125 14.0001 15.3125C13.1882 15.3117 12.4097 14.9887 11.8356 14.4146C11.2614 13.8404 10.9385 13.062 10.9376 12.25Z" fill="white"/>
</svg>